<svg width="512" height="512" viewBox="0 0 512 512" fill="none" xmlns="http://www.w3.org/2000/svg">
<rect width="512" height="512" rx="80" fill="#E42575"/>
<path d="M122.837 263C122.836 287.497 122.911 311.495 122.807 335.491C122.735 352.061 113.916 364.38 99.6055 368.351C83.2873 372.879 67.3732 362.34 65.2789 345.564C65.0117 343.424 65.0102 341.242 65.0097 339.079C64.9959 284.919 64.9966 230.759 65.0004 176.599C65.0014 162.346 71.4329 151.489 82.9485 147.015C96.0255 141.934 107.444 145.093 117.256 154.764C141.35 178.51 165.411 202.289 189.494 226.047C194.436 230.923 194.454 230.908 198.659 225.15C215.068 202.685 231.542 180.268 247.851 157.731C254.084 149.118 262.164 144.769 272.879 144.792C318.873 144.888 364.867 144.742 410.861 144.875C430.902 144.932 443.888 161.573 438.29 179.543C435.219 189.4 425.901 197.543 415.604 197.905C398.462 198.507 381.295 198.378 364.138 198.496C354.306 198.563 344.473 198.444 334.643 198.586C333.175 198.607 331.721 199.606 330.261 200.152C330.905 201.442 331.324 202.923 332.228 203.994C341.474 214.941 350.843 225.783 360.09 236.73C370.059 248.532 370.965 262.914 361.571 275.18C352.465 287.072 342.461 298.275 332.925 309.842C331.827 311.175 331.206 312.901 330.363 314.444C332.154 314.962 333.943 315.924 335.735 315.931C360.565 316.031 385.4 315.763 410.223 316.183C415.665 316.275 421.558 317.749 426.388 320.243C436.678 325.556 441.062 336.319 438.668 347.278C436.349 357.89 426.841 366.74 416.25 368.025C413.61 368.346 410.933 368.486 408.273 368.488C366.279 368.516 324.284 368.585 282.29 368.41C277.033 368.389 271.508 367.839 266.576 366.159C249.098 360.207 243.637 343.494 254.48 327.488C267.365 308.468 281.175 290.075 294.609 271.427C297.335 267.643 300.067 263.853 302.996 260.228C304.799 257.998 304.734 256.202 302.894 254.08C293.073 242.749 283.247 231.42 273.569 219.967C270.332 216.137 268.741 218.522 266.781 221.143C250.723 242.62 233.996 263.63 218.743 285.661C206.62 303.171 185.209 299.285 175.004 288.896C159.942 273.56 144.61 258.487 129.305 243.391C128.03 242.134 126.089 241.552 124.458 240.657C123.917 242.439 122.979 244.207 122.911 246.007C122.706 251.498 122.837 257.002 122.837 263Z" fill="#F5F2F6"/>
</svg>
